<mxfile host="app.diagrams.net" modified="2024-03-07T03:18:41.664Z" agent="Mozilla/5.0 (Macintosh; Intel Mac OS X 10_15_7) AppleWebKit/537.36 (KHTML, like Gecko) Chrome/121.0.0.0 Safari/537.36" etag="azOtPl1DLTF1JPpFWDO2" version="24.0.2" type="github">
  <diagram name="Page-1" id="929967ad-93f9-6ef4-fab6-5d389245f69c">
    <mxGraphModel dx="726" dy="524" grid="1" gridSize="10" guides="1" tooltips="1" connect="1" arrows="1" fold="1" page="1" pageScale="1.5" pageWidth="1169" pageHeight="826" background="none" math="0" shadow="0">
      <root>
        <mxCell id="0" style=";html=1;" />
        <mxCell id="1" style=";html=1;" parent="0" />
        <mxCell id="vw0Hk8p6siw58u64YQhA-1" value="Manager/Director" style="shape=umlActor;verticalLabelPosition=bottom;verticalAlign=top;html=1;outlineConnect=0;" vertex="1" parent="1">
          <mxGeometry x="60" y="80" width="30" height="60" as="geometry" />
        </mxCell>
        <mxCell id="vw0Hk8p6siw58u64YQhA-5" value="Employee" style="shape=umlActor;verticalLabelPosition=bottom;verticalAlign=top;html=1;outlineConnect=0;" vertex="1" parent="1">
          <mxGeometry x="60" y="280" width="30" height="60" as="geometry" />
        </mxCell>
        <mxCell id="vw0Hk8p6siw58u64YQhA-8" value="Staffing Plan" style="shape=umlActor;verticalLabelPosition=bottom;verticalAlign=top;html=1;outlineConnect=0;" vertex="1" parent="1">
          <mxGeometry x="410" y="170" width="30" height="60" as="geometry" />
        </mxCell>
        <mxCell id="vw0Hk8p6siw58u64YQhA-10" value="Submit Productive Hours" style="ellipse;whiteSpace=wrap;html=1;" vertex="1" parent="1">
          <mxGeometry x="200" y="70" width="120" height="80" as="geometry" />
        </mxCell>
        <mxCell id="vw0Hk8p6siw58u64YQhA-11" value="Submit Job Requisitions" style="ellipse;whiteSpace=wrap;html=1;" vertex="1" parent="1">
          <mxGeometry x="200" y="170" width="120" height="80" as="geometry" />
        </mxCell>
        <mxCell id="vw0Hk8p6siw58u64YQhA-12" value="Hire Employee" style="ellipse;whiteSpace=wrap;html=1;" vertex="1" parent="1">
          <mxGeometry x="200" y="290" width="120" height="80" as="geometry" />
        </mxCell>
        <mxCell id="vw0Hk8p6siw58u64YQhA-13" value="Convert Productive Hours into Headcount" style="ellipse;whiteSpace=wrap;html=1;" vertex="1" parent="1">
          <mxGeometry x="540" y="160" width="120" height="80" as="geometry" />
        </mxCell>
        <mxCell id="vw0Hk8p6siw58u64YQhA-14" value="" style="endArrow=none;html=1;rounded=0;exitX=0.5;exitY=0.5;exitDx=0;exitDy=0;exitPerimeter=0;" edge="1" parent="1" source="vw0Hk8p6siw58u64YQhA-1">
          <mxGeometry width="50" height="50" relative="1" as="geometry">
            <mxPoint x="150" y="160" as="sourcePoint" />
            <mxPoint x="200" y="110" as="targetPoint" />
          </mxGeometry>
        </mxCell>
        <mxCell id="vw0Hk8p6siw58u64YQhA-15" value="" style="endArrow=none;html=1;rounded=0;exitX=0.5;exitY=0.5;exitDx=0;exitDy=0;exitPerimeter=0;" edge="1" parent="1" source="vw0Hk8p6siw58u64YQhA-1" target="vw0Hk8p6siw58u64YQhA-11">
          <mxGeometry width="50" height="50" relative="1" as="geometry">
            <mxPoint x="70" y="209.5" as="sourcePoint" />
            <mxPoint x="195" y="209.5" as="targetPoint" />
          </mxGeometry>
        </mxCell>
        <mxCell id="vw0Hk8p6siw58u64YQhA-16" value="" style="endArrow=none;html=1;rounded=0;exitX=0.5;exitY=0.5;exitDx=0;exitDy=0;exitPerimeter=0;" edge="1" parent="1" source="vw0Hk8p6siw58u64YQhA-1" target="vw0Hk8p6siw58u64YQhA-12">
          <mxGeometry width="50" height="50" relative="1" as="geometry">
            <mxPoint x="70" y="329.5" as="sourcePoint" />
            <mxPoint x="195" y="329.5" as="targetPoint" />
          </mxGeometry>
        </mxCell>
        <mxCell id="vw0Hk8p6siw58u64YQhA-17" value="" style="endArrow=none;html=1;rounded=0;exitX=0.5;exitY=0.5;exitDx=0;exitDy=0;exitPerimeter=0;" edge="1" parent="1" source="vw0Hk8p6siw58u64YQhA-5">
          <mxGeometry width="50" height="50" relative="1" as="geometry">
            <mxPoint x="75" y="329.5" as="sourcePoint" />
            <mxPoint x="200" y="329.5" as="targetPoint" />
          </mxGeometry>
        </mxCell>
        <mxCell id="vw0Hk8p6siw58u64YQhA-18" value="" style="endArrow=none;html=1;rounded=0;entryX=0.5;entryY=0.5;entryDx=0;entryDy=0;entryPerimeter=0;" edge="1" parent="1" source="vw0Hk8p6siw58u64YQhA-10" target="vw0Hk8p6siw58u64YQhA-8">
          <mxGeometry width="50" height="50" relative="1" as="geometry">
            <mxPoint x="350" y="130" as="sourcePoint" />
            <mxPoint x="475" y="130" as="targetPoint" />
          </mxGeometry>
        </mxCell>
        <mxCell id="vw0Hk8p6siw58u64YQhA-19" value="" style="endArrow=none;html=1;rounded=0;exitX=0.5;exitY=0.5;exitDx=0;exitDy=0;exitPerimeter=0;" edge="1" parent="1" source="vw0Hk8p6siw58u64YQhA-8" target="vw0Hk8p6siw58u64YQhA-13">
          <mxGeometry width="50" height="50" relative="1" as="geometry">
            <mxPoint x="440" y="320" as="sourcePoint" />
            <mxPoint x="565" y="320" as="targetPoint" />
          </mxGeometry>
        </mxCell>
      </root>
    </mxGraphModel>
  </diagram>
</mxfile>
